<svg width="171" height="23" viewBox="0 0 171 23" fill="none" xmlns="http://www.w3.org/2000/svg">
<path d="M24.2955 11.0277V22.0934L26.4452 21.9793L28.5608 21.8652L28.6632 18.1386L28.7656 14.4501H30.0964C31.3589 14.4501 31.4954 14.6022 34.0546 18.2527L36.7503 22.0554H39.0365C40.3332 22.0554 41.3569 21.9793 41.3569 21.8652C41.3569 21.7511 40.1626 20.0019 38.7294 17.9865C36.3067 14.6402 36.1361 14.298 36.7162 13.9177C39.2413 12.2445 40.3332 10.3052 40.3332 7.41516C40.3332 4.06883 38.7636 1.71119 35.7949 0.608422C34.6006 0.152104 32.8603 -2.17557e-06 29.2433 -2.17557e-06H24.2955V11.0277ZM34.6347 4.6012C36.4091 5.51384 36.6821 7.90951 35.2489 9.54464C34.2935 10.5714 34.0887 10.6474 31.4954 10.6474H28.7314V7.41516V4.18291H31.2907C32.6897 4.18291 34.1911 4.37304 34.6347 4.6012Z" fill="#F53838"/>
<path d="M44.0867 2.09146V4.18292H47.6696H51.2525L48.4886 10.3432C46.9531 13.7656 45.1787 17.7964 44.5645 19.2794L43.4384 22.0554H50.263H57.0534V19.9639V17.8725H53.4705C51.4914 17.8725 49.8876 17.7964 49.8876 17.6823C49.8876 17.5682 51.662 13.5374 53.8117 8.7461L57.7359 7.03335e-06H50.9113H44.0867V2.09146Z" fill="#F53838"/>
<path d="M113.629 0.228159C113.459 0.380265 113.356 5.28568 113.356 11.1037V21.6751H118.952H124.548L126.732 20.4202C131.134 17.9105 132.874 12.4347 131.066 6.99687C130.213 4.4491 128.268 2.16751 126.05 1.06474C124.719 0.418291 123.525 0.266185 119.157 0.114079C116.257 -5.96046e-08 113.766 0.0380264 113.629 0.228159ZM124.139 4.90542C127.483 6.61661 128.575 11.7122 126.323 15.1726C125.197 16.9598 123.798 17.6063 120.624 17.7964L117.792 17.9865V11.0657V4.18291H120.283C121.921 4.18291 123.184 4.41107 124.139 4.90542Z" fill="#F53838"/>
<path d="M154.304 6.92082C154.304 14.6402 154.508 16.0091 156.112 18.3288C159.763 23.6525 167.304 22.7018 169.864 16.5415C170.614 14.7543 170.683 14.1839 170.683 7.30109V2.0173e-06H168.635H166.588V6.69266C166.588 12.0924 166.485 13.6515 166.042 14.6782C165.018 17.0739 162.084 17.8724 160.275 16.2753C158.637 14.8684 158.398 13.5755 158.398 6.4645V2.0173e-06H156.351H154.304V6.92082Z" fill="#F53838"/>
<path d="M9.48615 3.1562C7.26817 7.71937 1.39904 19.5076 0.682457 20.8385L0 22.0934L2.62746 21.9793L5.25492 21.8652L8.05299 16.2753C9.5544 13.1952 10.8852 10.6094 10.9876 10.4953C11.0899 10.4193 12.4548 12.967 14.0586 16.1993L16.9591 22.0554H19.2453C20.542 22.0554 21.5656 21.9413 21.5656 21.7511C21.5656 21.4469 11.4312 1.10277 11.0558 0.684474C10.9193 0.532369 10.2027 1.63514 9.48615 3.1562Z" fill="#F53838"/>
<path d="M68.8941 1.97739C67.2903 5.01951 59.1008 21.7512 59.1008 21.9033C59.1008 21.9793 60.2269 22.0554 61.5918 22.0554H64.0827L65.3794 19.3935C66.0619 17.9105 67.3927 15.2486 68.2798 13.4614L69.9177 10.1911L72.7499 15.8571C74.2855 18.9372 75.6504 21.6371 75.7869 21.7892C75.9575 21.9413 77.0835 22.0554 78.3461 21.9793L80.5982 21.8652L75.275 11.2178C72.3405 5.36174 69.9177 0.532382 69.8495 0.456329C69.7813 0.380276 69.3718 1.06475 68.8941 1.97739Z" fill="#F53838"/>
<path d="M103.836 0.912622C102.13 1.97736 101.652 4.29698 102.71 6.27436C103.324 7.41515 103.324 7.41515 102.164 10.6474C101.516 12.4346 100.867 14.2979 100.697 14.7923C100.389 15.6289 100.082 15.2486 96.3288 9.62069C94.1109 6.27436 92.0976 3.38434 91.8929 3.23224C91.1763 2.73789 90.6303 3.72658 88.8218 8.89818C87.1498 13.6135 86.9451 13.9937 86.0237 14.2219C84.42 14.5641 83.328 16.0472 83.328 17.8724C83.328 19.7738 84.0787 21.1047 85.4095 21.6371C88.583 22.8539 91.5175 18.7851 89.5043 15.9331C88.8901 15.0204 88.8901 14.9824 90.255 10.9136C91.0057 8.67002 91.7564 6.88278 91.8929 6.92081C92.0294 6.99686 93.9061 9.69674 96.0217 12.929C98.5468 16.7697 100.151 18.8611 100.594 18.9372C101.379 19.0513 101.481 18.8611 103.358 13.4994C105.03 8.7841 105.406 7.98555 106.19 7.98555C106.566 7.98555 107.351 7.4912 107.965 6.88278C111.002 3.87869 107.419 -1.29291 103.836 0.912622ZM106.463 4.10685C106.634 5.24764 105.986 6.0462 105.133 5.81804C104.143 5.51383 104.006 5.01948 104.655 3.95474C105.337 2.81395 106.327 2.89 106.463 4.10685ZM87.5934 16.8837C88.2076 17.3781 88.2076 17.4541 87.6275 18.4428C87.2522 19.0513 86.8427 19.3555 86.5015 19.2414C86.2285 19.1273 85.9214 19.0132 85.8531 19.0132C85.546 19.0132 85.7508 17.226 86.1261 16.8077C86.638 16.2373 86.8086 16.2373 87.5934 16.8837Z" fill="#F53838"/>
<path d="M142.463 0.83659C142.258 1.10278 141.61 2.4337 140.962 3.80266C140.347 5.17161 138.129 9.73479 136.014 13.9557L132.158 21.6751H134.683H137.208L139.153 17.7584C140.211 15.6289 141.507 13.0431 142.019 12.0544L142.975 10.2291L145.943 16.1232L148.912 22.0554H151.267H153.655L153.075 20.8385C151.574 17.6443 143.316 0.912643 143.077 0.646457C142.941 0.494351 142.634 0.570404 142.463 0.83659Z" fill="#F53838"/>
</svg>
